<svg preserveAspectRatio="none" width="100%" height="100%" overflow="visible" style="display: block;" viewBox="0 0 702 606" fill="none" xmlns="http://www.w3.org/2000/svg">
<g id="Rectangle 457">
<path d="M0 24C0 10.7452 10.7452 0 24 0H678C691.255 0 702 10.7452 702 24V582C702 595.255 691.255 606 678 606H24C10.7452 606 0 595.255 0 582V24Z" fill="url(#paint0_linear_0_50)"/>
<path d="M0 24C0 10.7452 10.7452 0 24 0H678C691.255 0 702 10.7452 702 24V582C702 595.255 691.255 606 678 606H24C10.7452 606 0 595.255 0 582V24Z" fill="url(#paint1_linear_0_50)"/>
</g>
<defs>
<linearGradient id="paint0_linear_0_50" x1="702" y1="163" x2="0" y2="163" gradientUnits="userSpaceOnUse">
<stop stop-color="#BF7EFF"/>
<stop offset="1" stop-color="#738CFF"/>
</linearGradient>
<linearGradient id="paint1_linear_0_50" x1="351" y1="0" x2="351" y2="326" gradientUnits="userSpaceOnUse">
<stop stop-color="white" stop-opacity="0"/>
<stop offset="1" stop-color="white" stop-opacity="0.61"/>
</linearGradient>
</defs>
</svg>
